# xmcd
#
# Track frame offsets:
#	150
#	14857
#	35682
#	56659
#	75246
#	99716
#	116343
#	135222
#	155290
#	173092
#
# Disc length: 2553 seconds
#
# Revision: 1
# Processed by: cddbd v1.5.1PL0 Copyright (c) Steve Scherf et al.
# Submitted via: audiograbber 1.83.01
#
DISCID=7409f70a
DTITLE=David Gogo - VIBE
DYEAR=2004
DGENRE=Electric Blues
TTITLE0=Love In The City
TTITLE1=Hit Me From Above
TTITLE2=300 Pound Shoes
TTITLE3=Hey Juanita
TTITLE4=I'd Do Anything
TTITLE5=Silk And Stone
TTITLE6=Gry Harder
TTITLE7=Something Ain't Right
TTITLE8=She's Alright
TTITLE9=Why Don't You Show Me
EXTD=
EXTT0=
EXTT1=
EXTT2=
EXTT3=
EXTT4=
EXTT5=
EXTT6=
EXTT7=
EXTT8=
EXTT9=
PLAYORDER=
